<?xml version="1.0" standalone="no"?>
<!DOCTYPE svg PUBLIC "-//W3C//DTD SVG 20010904//EN"
 "http://www.w3.org/TR/2001/REC-SVG-20010904/DTD/svg10.dtd">
<svg version="1.0" xmlns="http://www.w3.org/2000/svg"
 width="48.000000pt" height="48.000000pt" viewBox="0 0 48.000000 48.000000"
 preserveAspectRatio="xMidYMid meet">

<g transform="translate(0.000000,48.000000) scale(0.100000,-0.100000)"
fill="#000000" stroke="none">
<path d="M1 383 l1 -98 28 85 c36 108 36 110 0 110 l-30 0 1 -97z"/>
<path d="M375 449 c50 -16 93 -29 98 -29 4 0 7 14 7 30 l0 30 -97 -1 -98 -1
90 -29z"/>
<path d="M213 387 c-46 -23 -83 -47 -83 -54 0 -19 14 -16 70 12 27 14 54 25
59 25 5 0 -13 -66 -40 -147 -53 -158 -56 -173 -36 -173 7 0 32 63 61 155 27
85 52 155 56 155 3 0 19 -27 35 -60 28 -59 38 -69 50 -50 6 9 -68 164 -82 173
-5 3 -45 -14 -90 -36z"/>
<path d="M447 102 c-15 -49 -27 -92 -27 -95 0 -4 14 -7 30 -7 l30 0 0 95 c0
52 -2 95 -3 95 -2 0 -16 -40 -30 -88z"/>
<path d="M0 30 l0 -30 98 1 97 0 -90 30 c-50 16 -93 29 -97 29 -5 0 -8 -13 -8
-30z"/>
</g>
</svg>
